<svg width="24" height="24" viewBox="0 0 24 24" fill="none" xmlns="http://www.w3.org/2000/svg">
<path d="M8.68006 12.7201H10.4201V16.7701C10.4201 17.3701 11.1601 17.6501 11.5601 17.2001L15.8201 12.3601C16.1901 11.9401 15.8901 11.2801 15.3301 11.2801H13.5901V7.23008C13.5901 6.63008 12.8501 6.35008 12.4501 6.80008L8.19006 11.6401C7.82006 12.0601 8.12006 12.7201 8.68006 12.7201Z" stroke="#171717" stroke-width="1.5" stroke-miterlimit="10" stroke-linecap="round" stroke-linejoin="round"/>
<path d="M4 6C2.75 7.67 2 9.75 2 12C2 17.52 6.48 22 12 22C17.52 22 22 17.52 22 12C22 6.48 17.52 2 12 2C10.57 2 9.2 2.3 7.97 2.85" stroke="#171717" stroke-width="1.5" stroke-linecap="round" stroke-linejoin="round"/>
</svg>
