<svg width="24" height="24" viewBox="0 0 24 24" fill="none" xmlns="http://www.w3.org/2000/svg">
<path d="M16.96 6.16992C18.96 7.55992 20.34 9.76992 20.62 12.3199" stroke="#171717" stroke-width="1.5" stroke-linecap="round" stroke-linejoin="round"/>
<path d="M3.49023 12.37C3.75023 9.82997 5.11023 7.61997 7.09023 6.21997" stroke="#171717" stroke-width="1.5" stroke-linecap="round" stroke-linejoin="round"/>
<path d="M8.18994 20.9399C9.34994 21.5299 10.6699 21.8599 12.0599 21.8599C13.3999 21.8599 14.6599 21.5599 15.7899 21.0099" stroke="#171717" stroke-width="1.5" stroke-linecap="round" stroke-linejoin="round"/>
<path d="M9.27979 4.91989C9.27979 6.44989 10.5198 7.69989 12.0598 7.69989C13.5998 7.69989 14.8398 6.45989 14.8398 4.91989C14.8398 3.37989 13.5998 2.13989 12.0598 2.13989" stroke="#171717" stroke-width="1.5" stroke-linecap="round" stroke-linejoin="round"/>
<path d="M4.8298 19.9201C6.36516 19.9201 7.60981 18.6755 7.60981 17.1401C7.60981 15.6048 6.36516 14.3601 4.8298 14.3601C3.29445 14.3601 2.0498 15.6048 2.0498 17.1401C2.0498 18.6755 3.29445 19.9201 4.8298 19.9201Z" stroke="#171717" stroke-width="1.5" stroke-linecap="round" stroke-linejoin="round"/>
<path d="M21.9399 17.1401C21.9399 15.6101 20.6999 14.3601 19.1599 14.3601C17.6199 14.3601 16.3799 15.6001 16.3799 17.1401C16.3799 18.6801 17.6199 19.9201 19.1599 19.9201" stroke="#171717" stroke-width="1.5" stroke-linecap="round" stroke-linejoin="round"/>
</svg>
