<svg width="24" height="24" viewBox="0 0 24 24" fill="none" xmlns="http://www.w3.org/2000/svg">
<path opacity="0.34" d="M16.96 6.16992C18.96 7.55992 20.34 9.76992 20.62 12.3199" stroke="#171717" stroke-width="1.5" stroke-linecap="round" stroke-linejoin="round"/>
<path opacity="0.34" d="M3.49023 12.37C3.75023 9.82997 5.11023 7.61997 7.09023 6.21997" stroke="#171717" stroke-width="1.5" stroke-linecap="round" stroke-linejoin="round"/>
<path opacity="0.34" d="M8.18994 20.9399C9.34994 21.5299 10.6699 21.8599 12.0599 21.8599C13.3999 21.8599 14.6599 21.5599 15.7899 21.0099" stroke="#171717" stroke-width="1.5" stroke-linecap="round" stroke-linejoin="round"/>
<path d="M12.0598 7.69989C13.5951 7.69989 14.8398 6.45524 14.8398 4.91989C14.8398 3.38454 13.5951 2.13989 12.0598 2.13989C10.5244 2.13989 9.27979 3.38454 9.27979 4.91989C9.27979 6.45524 10.5244 7.69989 12.0598 7.69989Z" stroke="#171717" stroke-width="1.5" stroke-linecap="round" stroke-linejoin="round"/>
<path d="M4.8298 19.9201C6.36516 19.9201 7.60981 18.6755 7.60981 17.1401C7.60981 15.6048 6.36516 14.3601 4.8298 14.3601C3.29445 14.3601 2.0498 15.6048 2.0498 17.1401C2.0498 18.6755 3.29445 19.9201 4.8298 19.9201Z" stroke="#171717" stroke-width="1.5" stroke-linecap="round" stroke-linejoin="round"/>
<path d="M19.1701 19.9201C20.7055 19.9201 21.9501 18.6755 21.9501 17.1401C21.9501 15.6048 20.7055 14.3601 19.1701 14.3601C17.6348 14.3601 16.3901 15.6048 16.3901 17.1401C16.3901 18.6755 17.6348 19.9201 19.1701 19.9201Z" stroke="#171717" stroke-width="1.5" stroke-linecap="round" stroke-linejoin="round"/>
</svg>
