<svg width="24" height="24" viewBox="0 0 24 24" fill="none" xmlns="http://www.w3.org/2000/svg">
<path opacity="0.4" d="M16.19 2H7.81C4.17 2 2 4.17 2 7.81V16.18C2 19.83 4.17 22 7.81 22H16.18C19.82 22 21.99 19.83 21.99 16.19V7.81C22 4.17 19.83 2 16.19 2Z" fill="#171717"/>
<path d="M10.6399 9.49994C10.4499 9.49994 10.2599 9.42994 10.1099 9.27994C9.39994 8.56994 8.23994 8.56994 7.52994 9.27994C7.23994 9.56994 6.75994 9.56994 6.46994 9.27994C6.17994 8.98994 6.17994 8.50994 6.46994 8.21994C7.75994 6.92994 9.86994 6.92994 11.1699 8.21994C11.4599 8.50994 11.4599 8.98994 11.1699 9.27994C11.0199 9.42994 10.8299 9.49994 10.6399 9.49994Z" fill="#171717"/>
<path d="M13.36 9.49994C13.17 9.49994 12.98 9.42994 12.83 9.27994C12.54 8.98994 12.54 8.50994 12.83 8.21994C14.12 6.92994 16.23 6.92994 17.53 8.21994C17.82 8.50994 17.82 8.98994 17.53 9.27994C17.24 9.56994 16.76 9.56994 16.47 9.27994C15.76 8.56994 14.6 8.56994 13.89 9.27994C13.75 9.42994 13.56 9.49994 13.36 9.49994Z" fill="#171717"/>
<path d="M12.0001 11.9199C9.31012 11.9199 7.12012 14.1099 7.12012 16.7999C7.12012 17.4999 7.69012 18.0799 8.39012 18.0799H15.5901C16.2901 18.0799 16.8601 17.5099 16.8601 16.7999C16.8801 14.1099 14.6901 11.9199 12.0001 11.9199Z" fill="#171717"/>
</svg>
