<svg width="24" height="24" viewBox="0 0 24 24" fill="none" xmlns="http://www.w3.org/2000/svg">
<path d="M9.99018 22.75C9.79018 22.75 9.63018 22.71 9.51018 22.66C9.11018 22.51 8.43018 22.02 8.43018 20.47V18.03C8.43018 17.62 8.77018 17.28 9.18018 17.28C9.59018 17.28 9.93018 17.62 9.93018 18.03V20.47C9.93018 20.97 10.0202 21.19 10.0602 21.25C10.0902 21.21 10.3002 21.11 10.6302 20.73L18.2002 12.13C18.4802 11.81 18.5202 11.61 18.5202 11.57C18.5002 11.56 18.3202 11.46 17.9002 11.46H16.9702C16.5602 11.46 16.2202 11.12 16.2202 10.71C16.2202 10.3 16.5602 9.95996 16.9702 9.95996H17.9002C19.2402 9.95996 19.7202 10.59 19.8902 10.96C20.0602 11.34 20.2102 12.11 19.3302 13.12L11.7602 21.72C11.0502 22.54 10.4302 22.75 9.99018 22.75Z" fill="#171717"/>
<path d="M9.18008 15.2199C8.77008 15.2199 8.43008 14.8799 8.43008 14.4699V14.0399H6.09008C4.75008 14.0399 4.27008 13.4099 4.10008 13.0399C3.93008 12.6599 3.78008 11.8899 4.66008 10.8799L12.2301 2.2799C13.2501 1.1199 14.0801 1.1999 14.4801 1.3499C14.8801 1.4999 15.5601 1.9899 15.5601 3.5399V8.8499C15.5601 9.2599 15.2201 9.5999 14.8101 9.5999C14.4001 9.5999 14.0601 9.2599 14.0601 8.8499V3.5199C14.0601 3.0199 13.9701 2.7999 13.9301 2.7399C13.9001 2.7799 13.6901 2.8799 13.3601 3.2599L5.79008 11.8599C5.51008 12.1799 5.47008 12.3799 5.47008 12.4199C5.49008 12.4299 5.67008 12.5299 6.09008 12.5299H9.18008C9.59008 12.5299 9.93008 12.8699 9.93008 13.2799V14.4599C9.93008 14.8799 9.59008 15.2199 9.18008 15.2199Z" fill="#171717"/>
<path d="M1.99994 22.7499C1.80994 22.7499 1.61994 22.6799 1.46994 22.5299C1.17994 22.2399 1.17994 21.7599 1.46994 21.4699L21.4699 1.46994C21.7599 1.17994 22.2399 1.17994 22.5299 1.46994C22.8199 1.75994 22.8199 2.23994 22.5299 2.52994L2.52994 22.5299C2.37994 22.6799 2.18994 22.7499 1.99994 22.7499Z" fill="#171717"/>
</svg>
