<svg width="24" height="24" viewBox="0 0 24 24" fill="none" xmlns="http://www.w3.org/2000/svg">
<path d="M11.9701 22.7499C11.3601 22.7499 10.7301 22.6999 10.0901 22.5899C5.69005 21.8399 2.10005 18.2399 1.37005 13.8199C0.790052 10.3099 1.88005 6.87991 4.37005 4.38991C6.86005 1.89991 10.2901 0.819909 13.7901 1.38991C18.2001 2.11991 21.8101 5.69991 22.5601 10.0999C22.7201 11.0699 22.7601 12.0199 22.6801 12.9199V12.9299C22.6601 13.1599 22.6201 13.3799 22.5601 13.5999C22.4901 13.8499 22.3001 14.0399 22.0601 14.1199C21.8201 14.1999 21.5501 14.1399 21.3501 13.9799C20.4101 13.1899 19.2101 12.7499 17.9701 12.7499C15.0701 12.7499 12.7201 15.1099 12.7201 17.9999C12.7201 19.2399 13.1601 20.4399 13.9501 21.3799C14.1201 21.5799 14.1701 21.8399 14.0901 22.0899C14.0101 22.3399 13.8201 22.5199 13.5701 22.5899C13.3501 22.6499 13.1301 22.6899 12.9001 22.7099C12.6001 22.7399 12.2901 22.7499 11.9701 22.7499ZM11.9701 2.74991C9.52005 2.74991 7.20005 3.69991 5.44005 5.45991C3.30005 7.59991 2.36005 10.5599 2.86005 13.5799C3.49005 17.3699 6.56005 20.4699 10.3501 21.1099C10.9501 21.2099 11.5201 21.2699 12.0701 21.2499C11.5301 20.2599 11.2401 19.1399 11.2401 17.9999C11.2401 14.2799 14.2701 11.2499 17.9901 11.2499C19.1301 11.2499 20.2501 11.5399 21.2401 12.0799C21.2501 11.5299 21.2001 10.9599 21.1001 10.3599C20.4601 6.57991 17.3601 3.49991 13.5701 2.87991C13.0201 2.78991 12.4901 2.74991 11.9701 2.74991Z" fill="#171717"/>
<path d="M13.38 22.61C13.16 22.61 12.95 22.52 12.81 22.34C11.79 21.13 11.22 19.59 11.22 18C11.22 14.28 14.25 11.25 17.97 11.25C19.56 11.25 21.1 11.81 22.31 12.84C22.54 13.03 22.63 13.34 22.55 13.62C22.37 14.24 22.05 14.78 21.59 15.24L15.21 21.62C14.75 22.08 14.2 22.4 13.59 22.58C13.52 22.6 13.45 22.61 13.38 22.61ZM17.97 12.75C15.07 12.75 12.72 15.11 12.72 18C12.72 19.06 13.04 20.09 13.63 20.95C13.82 20.85 13.99 20.72 14.15 20.56L20.53 14.18C20.69 14.02 20.82 13.85 20.92 13.66C20.06 13.07 19.03 12.75 17.97 12.75Z" fill="#171717"/>
</svg>
