<svg width="24" height="24" viewBox="0 0 24 24" fill="none" xmlns="http://www.w3.org/2000/svg">
<path opacity="0.4" d="M19.07 4.95008C23.04 8.92008 22.97 15.4 18.87 19.29C15.08 22.88 8.92996 22.88 5.12996 19.29C1.01996 15.4 0.94995 8.92008 4.92995 4.95008C8.82995 1.04008 15.17 1.04008 19.07 4.95008Z" fill="#171717"/>
<path d="M12 18.3199C10.42 18.3199 8.84999 17.7499 7.64999 16.6199C7.34999 16.3299 7.34 15.8599 7.62 15.5599C7.91 15.2599 8.37999 15.2499 8.67999 15.5299C10.51 17.2599 13.49 17.2599 15.32 15.5299C15.62 15.2499 16.1 15.2599 16.38 15.5599C16.66 15.8599 16.65 16.3399 16.35 16.6199C15.15 17.7499 13.58 18.3199 12 18.3199Z" fill="#171717"/>
</svg>
